<svg width="45" height="45" viewBox="0 0 45 45" fill="none" xmlns="http://www.w3.org/2000/svg">
<path d="M41.25 21.6937V32.1562C41.25 37.6875 36.75 42.1875 31.2188 42.1875H13.7812C8.25 42.1875 3.75 37.6875 3.75 32.1562V21.6937C3.75 16.1625 8.25 11.6625 13.7812 11.6625H31.2188C36.75 11.6625 41.25 16.1625 41.25 21.6937Z" fill="white"/>
<path d="M25.575 5.08125L25.5562 6.84375C25.5375 8.49375 24.1688 9.8625 22.5 9.8625C22.2187 9.8625 22.05 10.05 22.05 10.2937C22.05 10.5375 22.2375 10.725 22.4812 10.725H19.4625C19.4438 10.5937 19.425 10.4437 19.425 10.2937C19.425 8.60625 20.7937 7.2375 22.4625 7.2375C22.7437 7.2375 22.9312 7.05 22.9312 6.80625L22.95 5.04375C22.9687 4.33125 23.55 3.75 24.2625 3.75H24.2812C25.0125 3.75 25.575 4.35 25.575 5.08125Z" fill="white"/>
<path d="M18.9938 28.1438L17.0625 26.2125L18.9188 24.3563C19.4625 23.8125 19.4625 22.9125 18.9188 22.3688C18.375 21.825 17.475 21.825 16.9312 22.3688L15.075 24.225L13.275 22.425C12.7312 21.8813 11.8312 21.8813 11.2875 22.425C10.7437 22.9688 10.7437 23.8688 11.2875 24.4125L13.0875 26.2125L11.2312 28.0688C10.6875 28.6125 10.6875 29.5125 11.2312 30.0563C11.5125 30.3375 11.8687 30.4688 12.225 30.4688C12.5812 30.4688 12.9375 30.3375 13.2188 30.0563L15.075 28.2L17.0062 30.1313C17.2875 30.4125 17.6438 30.5438 18 30.5438C18.3563 30.5438 18.7125 30.4125 18.9938 30.1313C19.5375 29.5875 19.5375 28.6875 18.9938 28.1438Z" fill="#2D3250"/>
<path d="M25.3875 28.125C24.3563 28.125 23.4937 27.2812 23.4937 26.25C23.4937 25.2188 24.3188 24.375 25.35 24.375H25.3875C26.4188 24.375 27.2625 25.2188 27.2625 26.25C27.2625 27.2812 26.4375 28.125 25.3875 28.125Z" fill="#2D3250"/>
<path d="M32.775 28.125C31.7437 28.125 30.8812 27.2812 30.8812 26.25C30.8812 25.2188 31.7062 24.375 32.7375 24.375H32.775C33.8062 24.375 34.65 25.2188 34.65 26.25C34.65 27.2812 33.825 28.125 32.775 28.125Z" fill="#2D3250"/>
<path d="M29.0625 31.8187C28.0312 31.8187 27.1875 30.9937 27.1875 29.9625V29.925C27.1875 28.8937 28.0312 28.05 29.0625 28.05C30.0938 28.05 30.9375 28.8937 30.9375 29.925C30.9375 30.9562 30.1125 31.8187 29.0625 31.8187Z" fill="#2D3250"/>
<path d="M29.0625 24.4312C28.0312 24.4312 27.1875 23.6062 27.1875 22.575V22.5375C27.1875 21.5062 28.0312 20.6625 29.0625 20.6625C30.0938 20.6625 30.9375 21.5062 30.9375 22.5375C30.9375 23.5687 30.1125 24.4312 29.0625 24.4312Z" fill="#2D3250"/>
</svg>
