<svg width="45" height="47" viewBox="0 0 45 47" fill="none" xmlns="http://www.w3.org/2000/svg">
<g filter="url(#filter0_d_19_307)">
<path d="M23.0625 12.5523L29.25 8.786C29.4188 8.69975 29.6156 8.63938 29.8125 8.63938C30.4313 8.63938 30.9375 9.17125 30.9375 9.82388V17.3564C30.9375 17.7991 30.7125 18.1844 30.375 18.3914L23.0625 22.839C22.8919 22.9411 22.6977 22.9949 22.5 22.9949C22.3023 22.9949 22.1081 22.9411 21.9375 22.839L14.625 18.3914C14.4568 18.2778 14.3178 18.1244 14.2199 17.9442C14.122 17.764 14.068 17.5624 14.0625 17.3564V9.82388C14.0625 9.61688 14.0906 9.40988 14.2031 9.23163C14.2726 9.09505 14.3687 8.97447 14.4855 8.87732C14.6023 8.78017 14.7373 8.70851 14.8823 8.66676C15.0272 8.625 15.179 8.61404 15.3282 8.63455C15.4774 8.65506 15.621 8.7066 15.75 8.786L21.9375 12.5523C22.275 12.7593 22.725 12.7593 23.0625 12.5523ZM12.0938 28.3648L5.90625 24.5985C5.77725 24.5191 5.6337 24.4676 5.48446 24.4471C5.33522 24.4265 5.18345 24.4375 5.03851 24.4793C4.89357 24.521 4.75854 24.5927 4.64174 24.6898C4.52493 24.787 4.42884 24.9076 4.35938 25.0441C4.25715 25.2234 4.20828 25.4292 4.21875 25.6364V33.1689C4.21875 33.5829 4.44375 33.9681 4.78125 34.2039L12.0938 38.6515C12.4313 38.8585 12.8813 38.8585 13.2188 38.6515L20.5313 34.2039C20.8688 33.9969 21.0938 33.6116 21.0938 33.1689V25.6364C21.0968 25.3272 20.9803 25.0294 20.7696 24.8076C20.5589 24.5858 20.2711 24.4579 19.9688 24.4519C19.7719 24.4519 19.575 24.5094 19.4063 24.5985L13.2188 28.3648C13.0481 28.4668 12.854 28.5206 12.6563 28.5206C12.4585 28.5206 12.2644 28.4668 12.0938 28.3648ZM31.7813 28.3648L25.5938 24.5985C25.4647 24.5191 25.3212 24.4676 25.172 24.4471C25.0227 24.4265 24.871 24.4375 24.726 24.4793C24.5811 24.521 24.446 24.5927 24.3292 24.6898C24.2124 24.787 24.1163 24.9076 24.0469 25.0441C23.9447 25.2234 23.8958 25.4292 23.9063 25.6364V33.1689C23.9063 33.5829 24.1313 33.9681 24.4688 34.2039L31.7813 38.6515C32.1188 38.8585 32.5688 38.8585 32.9063 38.6515L40.2188 34.2039C40.5563 33.9969 40.7813 33.6116 40.7813 33.1689V25.6364C40.7843 25.3272 40.6678 25.0294 40.4571 24.8076C40.2464 24.5858 39.9586 24.4579 39.6563 24.4519C39.4594 24.4519 39.2625 24.5094 39.0938 24.5985L32.9063 28.3648C32.7356 28.4668 32.5415 28.5206 32.3438 28.5206C32.146 28.5206 31.9519 28.4668 31.7813 28.3648Z" fill="white"/>
</g>
<defs>
<filter id="filter0_d_19_307" x="-4" y="0" width="53" height="54" filterUnits="userSpaceOnUse" color-interpolation-filters="sRGB">
<feFlood flood-opacity="0" result="BackgroundImageFix"/>
<feColorMatrix in="SourceAlpha" type="matrix" values="0 0 0 0 0 0 0 0 0 0 0 0 0 0 0 0 0 0 127 0" result="hardAlpha"/>
<feOffset dy="4"/>
<feGaussianBlur stdDeviation="2"/>
<feComposite in2="hardAlpha" operator="out"/>
<feColorMatrix type="matrix" values="0 0 0 0 0 0 0 0 0 0 0 0 0 0 0 0 0 0 0.25 0"/>
<feBlend mode="normal" in2="BackgroundImageFix" result="effect1_dropShadow_19_307"/>
<feBlend mode="normal" in="SourceGraphic" in2="effect1_dropShadow_19_307" result="shape"/>
</filter>
</defs>
</svg>
