<svg width="45" height="45" viewBox="0 0 45 45" fill="none" xmlns="http://www.w3.org/2000/svg">
<path d="M22.5 39.375L18.75 37.5L22.5 39.375ZM22.5 39.375L26.25 37.5L22.5 39.375ZM22.5 39.375V34.6875V39.375ZM11.25 33.75L7.5 31.875V27.1875M7.5 17.8125V13.125V17.8125ZM7.5 13.125L11.25 11.25L7.5 13.125ZM7.5 13.125L11.25 15L7.5 13.125ZM18.75 7.5L22.5 5.625L26.25 7.5M33.75 11.25L37.5 13.125L33.75 11.25ZM37.5 13.125L33.75 15L37.5 13.125ZM37.5 13.125V17.8125V13.125ZM22.5 20.625L18.75 18.75L22.5 20.625ZM22.5 20.625L26.25 18.75L22.5 20.625ZM22.5 20.625V25.3125V20.625ZM33.75 33.75L37.5 31.875V27.1875" fill="white"/>
<path d="M22.5 39.375L18.75 37.5M22.5 39.375L26.25 37.5M22.5 39.375V34.6875M11.25 33.75L7.5 31.875V27.1875M7.5 17.8125V13.125M7.5 13.125L11.25 11.25M7.5 13.125L11.25 15M18.75 7.5L22.5 5.625L26.25 7.5M33.75 11.25L37.5 13.125M37.5 13.125L33.75 15M37.5 13.125V17.8125M22.5 20.625L18.75 18.75M22.5 20.625L26.25 18.75M22.5 20.625V25.3125M33.75 33.75L37.5 31.875V27.1875" stroke="white" stroke-width="2" stroke-linecap="round" stroke-linejoin="round"/>
</svg>
