<svg width="43" height="43" viewBox="0 0 43 43" fill="none" xmlns="http://www.w3.org/2000/svg">
<path fill-rule="evenodd" clip-rule="evenodd" d="M21.0113 14.6308C17.4874 14.6308 14.6307 17.4875 14.6307 21.0114C14.6307 24.5354 17.4874 27.392 21.0113 27.392C24.5353 27.392 27.392 24.5354 27.392 21.0114C27.392 17.4875 24.5353 14.6308 21.0113 14.6308ZM17.183 21.0114C17.183 18.8971 18.897 17.183 21.0113 17.183C23.1256 17.183 24.8397 18.8971 24.8397 21.0114C24.8397 23.1257 23.1256 24.8398 21.0113 24.8398C18.897 24.8398 17.183 23.1257 17.183 21.0114Z" fill="white"/>
<path fill-rule="evenodd" clip-rule="evenodd" d="M20.9684 2.72025C20.2122 2.72023 19.5808 2.72023 19.0625 2.75559C18.523 2.79241 18.0134 2.87176 17.5193 3.07642C16.3728 3.55133 15.4619 4.46223 14.987 5.60875C14.7397 6.20564 14.6728 6.83468 14.6472 7.51841C14.6266 8.06805 14.3493 8.52664 13.9399 8.76298C13.5306 8.99931 12.9947 9.01024 12.5084 8.75323C11.9035 8.4335 11.3253 8.17694 10.6847 8.09262C9.45437 7.93064 8.21005 8.26406 7.22551 9.01953C6.80122 9.34509 6.47766 9.74677 6.17602 10.1956C5.88624 10.6268 5.57059 11.1736 5.19247 11.8285L5.1495 11.9029C4.77136 12.5579 4.4557 13.1046 4.22717 13.5711C3.98928 14.0568 3.80319 14.5378 3.73338 15.0681C3.5714 16.2984 3.90482 17.5427 4.66027 18.5274C5.05352 19.0397 5.56474 19.4123 6.144 19.7763C6.60983 20.0689 6.86834 20.5385 6.86831 21.0114C6.86829 21.4841 6.60978 21.9537 6.144 22.2463C5.56467 22.6103 5.0534 22.9829 4.66012 23.4954C3.90465 24.4799 3.57124 25.7242 3.73321 26.9546C3.80302 27.4847 3.98911 27.9659 4.227 28.4515C4.45553 28.9181 4.77119 29.4648 5.14932 30.1197L5.1923 30.1942C5.57042 30.8491 5.88607 31.3958 6.17585 31.827C6.47749 32.2758 6.80105 32.6776 7.22534 33.0031C8.20988 33.7585 9.4542 34.092 10.6846 33.93C11.3251 33.8456 11.9033 33.5892 12.5082 33.2695C12.9945 33.0124 13.5304 33.0233 13.9398 33.2598C14.3492 33.4962 14.6266 33.9547 14.6472 34.5045C14.6728 35.1881 14.7397 35.8172 14.987 36.4141C15.4619 37.5605 16.3728 38.4715 17.5193 38.9464C18.0134 39.1511 18.523 39.2304 19.0625 39.2671C19.5808 39.3025 20.2122 39.3025 20.9684 39.3025H21.0543C21.8106 39.3025 22.4419 39.3025 22.9603 39.2671C23.4999 39.2304 24.0095 39.1511 24.5036 38.9464C25.6501 38.4715 26.561 37.5605 27.0359 36.4141C27.2832 35.8172 27.35 35.1881 27.3756 34.5043C27.3961 33.9547 27.6735 33.4962 28.0829 33.2596C28.4923 33.0233 29.0282 33.0124 29.5145 33.2693C30.1194 33.5891 30.6976 33.8456 31.3382 33.9299C32.5685 34.0918 33.8128 33.7585 34.7973 33.0031C35.2217 32.6774 35.5451 32.2758 35.8468 31.827C36.1366 31.3958 36.4522 30.8491 36.8303 30.1942L36.8733 30.1197C37.2514 29.4648 37.5672 28.9179 37.7957 28.4514C38.0336 27.9658 38.2196 27.4847 38.2895 26.9546C38.4515 25.724 38.118 24.4797 37.3625 23.4952C36.9693 22.9827 36.458 22.6103 35.8788 22.2463C35.4129 21.9537 35.1545 21.4841 35.1545 21.0112C35.1545 20.5385 35.4129 20.0691 35.8786 19.7764C36.4582 19.4125 36.9695 19.04 37.3627 18.5274C38.1182 17.5429 38.4516 16.2986 38.2897 15.0682C38.2197 14.538 38.0338 14.0569 37.7959 13.5712C37.5674 13.1047 37.2518 12.558 36.8735 11.9032L36.8306 11.8287C36.4524 11.1737 36.1368 10.6269 35.847 10.1957C35.5453 9.74689 35.2219 9.34521 34.7975 9.01963C33.813 8.26418 32.5687 7.93075 31.3382 8.09274C30.6977 8.17706 30.1196 8.43358 29.5147 8.75329C29.0284 9.01034 28.4924 8.9994 28.083 8.76303C27.6737 8.52667 27.3961 8.06801 27.3756 7.51833C27.35 6.83461 27.2832 6.2056 27.0359 5.60875C26.561 4.46223 25.6501 3.55133 24.5036 3.07642C24.0095 2.87176 23.4999 2.79241 22.9603 2.75559C22.4419 2.72023 21.8106 2.72023 21.0543 2.72025H20.9684ZM18.4959 5.4344C18.6273 5.38002 18.8267 5.32987 19.2363 5.30192C19.6574 5.2732 20.2012 5.2725 21.0114 5.2725C21.8217 5.2725 22.3655 5.2732 22.7864 5.30192C23.1962 5.32987 23.3956 5.38002 23.5268 5.4344C24.0479 5.65027 24.4621 6.06431 24.6778 6.58546C24.7461 6.74984 24.8024 7.00611 24.8252 7.61371C24.8755 8.96195 25.5715 10.2601 26.8069 10.9733C28.0422 11.6866 29.5145 11.6402 30.7073 11.0098C31.2448 10.7256 31.4951 10.6464 31.6713 10.6232C32.2306 10.5495 32.7962 10.7011 33.2437 11.0445C33.3565 11.131 33.4996 11.2786 33.7286 11.6194C33.9641 11.9697 34.2365 12.4402 34.6416 13.1419C35.0468 13.8437 35.3182 14.3149 35.5038 14.6939C35.6843 15.0626 35.7407 15.2604 35.7592 15.4013C35.8329 15.9606 35.6813 16.5262 35.3379 16.9737C35.2295 17.1149 35.0359 17.2919 34.5208 17.6154C33.3786 18.3332 32.6024 19.5848 32.6022 21.0112C32.6022 22.4378 33.3785 23.6896 34.5208 24.4074C35.0357 24.7309 35.2293 24.9078 35.3377 25.049C35.6811 25.4965 35.8327 26.0621 35.759 26.6214C35.7405 26.7623 35.6842 26.96 35.5036 27.3287C35.318 27.7076 35.0466 28.179 34.6415 28.8807C34.2363 29.5824 33.9639 30.053 33.7285 30.4033C33.4994 30.744 33.3563 30.8917 33.2435 30.9781C32.796 31.3216 32.2305 31.4731 31.6712 31.3996C31.4949 31.3763 31.2446 31.297 30.7071 31.013C29.5143 30.3824 28.042 30.3361 26.8066 31.0494C25.5715 31.7627 24.8755 33.0607 24.8252 34.409C24.8024 35.0166 24.7461 35.2729 24.6778 35.4374C24.4621 35.9584 24.0479 36.3725 23.5268 36.5885C23.3956 36.6427 23.1962 36.6929 22.7864 36.7208C22.3655 36.7496 21.8217 36.7503 21.0114 36.7503C20.2012 36.7503 19.6574 36.7496 19.2363 36.7208C18.8267 36.6929 18.6273 36.6427 18.4959 36.5885C17.9749 36.3725 17.5608 35.9584 17.3449 35.4374C17.2768 35.2729 17.2204 35.0166 17.1977 34.409C17.1473 33.0609 16.4514 31.7627 15.2159 31.0494C13.9806 30.3361 12.5084 30.3826 11.3156 31.013C10.778 31.2971 10.5278 31.3764 10.3514 31.3996C9.79217 31.4732 9.22657 31.3216 8.77906 30.9783C8.66632 30.8918 8.52317 30.7441 8.29417 30.4033C8.05877 30.0532 7.78627 29.5825 7.38114 28.8808C6.976 28.1791 6.70471 27.7078 6.51906 27.3289C6.33846 26.9602 6.28218 26.7623 6.26363 26.6214C6.19001 26.0621 6.34156 25.4965 6.68496 25.049C6.79327 24.908 6.98699 24.7309 7.50185 24.4074C8.6442 23.6897 9.42049 22.4379 9.42056 21.0116C9.42065 19.5848 8.64432 18.3331 7.50186 17.6152C6.98713 17.2917 6.79343 17.1147 6.68511 16.9736C6.34173 16.5261 6.19018 15.9605 6.2638 15.4012C6.28235 15.2603 6.33863 15.0625 6.51923 14.6938C6.70488 14.3148 6.97617 13.8435 7.3813 13.1418C7.78644 12.4401 8.05892 11.9695 8.29434 11.6193C8.52334 11.2785 8.66649 11.1309 8.77921 11.0444C9.22674 10.701 9.79234 10.5494 10.3516 10.623C10.528 10.6463 10.7782 10.7255 11.3158 11.0097C12.5086 11.6401 13.9807 11.6865 15.216 10.9733C16.4514 10.2601 17.1473 8.96198 17.1977 7.6138C17.2204 7.00614 17.2768 6.74986 17.3449 6.58546C17.5608 6.06431 17.9749 5.65027 18.4959 5.4344Z" fill="white"/>
</svg>
